<?xml version="1.0" standalone="no"?>
<!DOCTYPE svg PUBLIC "-//W3C//DTD SVG 20010904//EN"
 "http://www.w3.org/TR/2001/REC-SVG-20010904/DTD/svg10.dtd">
<svg version="1.0" xmlns="http://www.w3.org/2000/svg"
 width="300.000000pt" height="300.000000pt" viewBox="0 0 300.000000 300.000000"
 preserveAspectRatio="xMidYMid meet">
<metadata>
Created by potrace 1.10, written by Peter Selinger 2001-2011
</metadata>
<g transform="translate(0.000000,300.000000) scale(0.100000,-0.100000)"
fill="#000000" stroke="none">
<path d="M1314 2587 c-68 -45 -74 -58 -74 -164 0 -85 -3 -98 -30 -146 -16 -30
-30 -60 -30 -69 0 -8 18 -41 41 -72 l41 -58 -23 -16 c-13 -9 -55 -30 -93 -47
-38 -16 -78 -41 -88 -56 -12 -16 -33 -95 -58 -215 -43 -209 -53 -246 -73 -278
-37 -56 -82 -223 -102 -376 -4 -30 -11 -64 -15 -75 -6 -17 -8 -17 -21 10 -38
77 -85 49 -74 -45 3 -30 6 -68 6 -84 0 -33 27 -90 65 -135 33 -40 26 -49 -54
-64 -39 -7 -64 -18 -72 -30 -15 -25 -6 -32 27 -19 15 6 51 14 78 17 l51 6 26
-93 c14 -51 25 -94 24 -95 0 -1 -61 33 -135 75 l-133 77 4 525 c2 289 0 505
-4 480 -18 -116 -39 -444 -45 -725 l-6 -311 424 -248 c233 -137 429 -249 434
-249 6 0 195 108 421 241 227 133 419 244 428 248 27 10 22 518 -8 824 l-24
235 -1 -506 -1 -507 -171 -101 c-94 -55 -175 -98 -180 -95 -5 3 -9 16 -9 28 0
38 -109 625 -131 706 -11 41 -31 94 -45 117 -13 23 -24 56 -24 73 0 59 70 433
85 457 24 36 72 61 155 79 41 9 112 29 158 44 45 15 82 26 82 24 0 -16 -53
-180 -61 -191 -28 -33 49 -67 151 -67 92 0 186 50 149 78 -15 11 -109 251
-109 277 0 8 13 52 29 99 l28 85 78 33 c66 27 77 29 72 15 -2 -10 -30 -101
-62 -203 -31 -102 -59 -192 -62 -201 -7 -25 46 -41 139 -41 83 1 174 17 183
33 3 4 -4 14 -14 21 -13 9 -44 79 -84 189 -35 96 -69 184 -75 195 -6 12 -7 25
-3 30 5 5 12 19 15 30 l7 22 -83 -24 c-45 -12 -84 -22 -85 -20 -9 9 43 116 67
136 37 32 53 72 37 93 -20 24 -60 47 -83 47 -30 0 -64 -45 -64 -85 0 -18 -18
-70 -39 -116 -63 -135 -56 -145 10 -14 l60 120 -5 -55 c-3 -30 -6 -74 -6 -98
0 -42 -1 -42 -62 -73 -54 -27 -66 -38 -86 -80 -13 -26 -35 -61 -50 -77 -40
-42 -143 -65 -299 -66 l-122 -1 5 36 c5 28 1 41 -21 67 -15 18 -40 40 -56 49
-25 15 -29 23 -29 64 0 35 -6 52 -25 73 -22 24 -25 36 -25 107 0 79 0 79 -39
118 -37 37 -42 39 -101 38 -51 0 -69 -5 -106 -30z m197 -23 c29 -30 34 -42 33
-80 -1 -53 -5 -58 -41 -50 -22 6 -24 9 -12 18 11 8 11 9 -3 5 -9 -3 -30 -1
-46 5 -25 10 -38 8 -85 -15 -30 -14 -58 -31 -62 -36 -3 -6 -14 -15 -24 -20
-16 -9 -18 -4 -19 54 -1 70 5 81 63 124 34 26 49 30 101 31 56 0 62 -2 95 -36z
m869 6 c0 -23 -6 -33 -22 -39 -30 -11 -36 11 -14 44 22 34 36 31 36 -5z m50
-11 c0 -6 5 -7 11 -3 9 5 10 -1 5 -22 -10 -37 -9 -37 -40 -23 -16 8 -25 18
-21 27 3 7 5 22 5 33 0 17 3 18 20 9 11 -6 20 -15 20 -21z m-23 -62 c4 -6 -2
-8 -15 -5 -23 6 -31 -7 -9 -15 9 -3 9 -7 1 -18 -6 -8 -16 -27 -22 -44 -9 -27
-10 -25 -11 31 -1 33 2 63 5 66 7 8 43 -2 51 -15z m-987 -53 c0 -8 -4 -13 -9
-10 -5 3 -15 -2 -22 -12 -12 -15 -12 -16 1 -5 10 8 21 9 30 3 21 -13 28 -12
32 5 2 13 8 12 36 -5 30 -18 32 -24 32 -73 0 -29 -6 -62 -14 -72 -12 -17 -14
-17 -37 -2 -41 29 -119 20 -119 -14 0 -20 56 -41 88 -32 18 4 18 2 3 -74 -11
-53 -21 -79 -32 -81 -21 -4 -56 36 -73 83 -17 47 -21 23 -5 -26 17 -48 38 -69
70 -69 35 0 45 17 54 93 4 32 16 68 26 80 22 27 23 24 4 -88 -8 -49 -15 -94
-15 -98 0 -13 474 1 550 17 102 22 121 34 153 95 33 66 34 52 3 -59 -18 -65
-27 -86 -42 -88 -10 -2 -73 -21 -140 -42 -67 -22 -141 -41 -165 -42 l-44 -3 0
48 c0 26 -3 47 -6 47 -4 0 -25 -20 -47 -44 -30 -33 -42 -55 -47 -91 -6 -37
-11 -45 -24 -40 -58 24 -132 46 -219 66 -97 21 -103 24 -152 74 l-51 51 36 35
c35 34 36 35 34 109 -1 41 2 83 6 93 5 11 2 24 -9 36 -9 10 -16 34 -16 55 0
34 3 39 45 57 24 11 47 24 50 29 10 16 35 12 35 -6z m180 -156 c0 -15 -4 -28
-9 -28 -19 0 -61 67 -61 95 l0 29 35 -34 c24 -23 35 -43 35 -62z m-321 -73
c16 -97 4 -118 -40 -72 -53 55 -54 62 -20 122 17 30 32 67 32 82 2 29 5 15 28
-132z m1282 -110 c32 -93 57 -170 56 -171 -1 -1 -31 1 -66 4 l-64 5 5 158 c4
109 2 161 -6 170 -8 8 -7 10 3 7 8 -2 39 -79 72 -173z m-1031 118 c7 -26 22
-45 45 -60 39 -25 42 -21 20 31 -16 37 -16 37 6 26 11 -7 38 -28 60 -47 33
-30 39 -42 39 -74 0 -43 -5 -45 -75 -29 -28 6 -52 22 -77 51 -33 36 -38 48
-38 90 0 27 2 49 5 49 2 0 9 -17 15 -37z m945 -220 c-6 -71 -8 -73 -33 -73
-15 0 -36 -3 -48 -6 -21 -5 -20 -4 6 78 15 46 38 122 51 170 l24 87 3 -92 c2
-51 0 -125 -3 -164z m-193 170 l-25 -76 -24 53 c-13 29 -22 54 -20 56 1 2 23
12 47 23 25 11 46 20 46 20 1 1 -10 -33 -24 -76z m-39 -119 c-5 -14 -51 -39
-58 -32 -4 3 14 105 22 128 3 9 12 -3 24 -32 10 -26 16 -55 12 -64z m62 -131
l42 -108 -95 -3 c-52 -1 -96 -1 -98 1 -3 3 10 99 22 154 3 14 18 28 39 37 19
8 35 20 35 27 0 25 14 -3 55 -108z m-850 -47 c72 -19 149 -41 171 -51 l42 -16
-5 -62 -6 -62 21 25 21 25 -14 -55 c-7 -30 -16 -73 -21 -95 l-7 -40 -8 30 c-5
17 -14 57 -21 90 -10 50 -13 56 -17 32 -6 -27 -6 -27 -30 18 -15 28 -33 48
-47 51 -24 6 -94 -12 -94 -25 0 -3 36 -42 80 -86 44 -43 78 -81 75 -83 -2 -2
-52 24 -110 58 -59 34 -109 60 -111 58 -4 -5 91 -80 170 -135 59 -40 81 -48
58 -20 -12 14 -7 27 10 27 12 0 30 -51 24 -67 -4 -10 -46 13 -143 78 -76 51
-155 105 -176 122 -65 51 -51 23 20 -40 89 -79 189 -151 237 -173 l38 -18 -48
-6 c-49 -6 -108 -9 -131 -7 -14 1 -78 93 -118 169 -15 29 -30 51 -32 48 -6 -6
26 -176 38 -199 14 -24 159 -94 214 -103 l44 -6 -25 -39 c-13 -21 -24 -41 -24
-44 0 -2 20 5 45 17 43 21 47 21 73 6 29 -18 39 -42 78 -183 23 -84 25 -111
31 -420 l6 -330 -44 -22 c-24 -13 -74 -41 -111 -62 -38 -22 -68 -39 -68 -38 0
1 31 126 69 277 66 263 89 371 78 360 -3 -3 -29 -77 -57 -165 -81 -247 -185
-505 -222 -552 -7 -9 -18 -6 -44 9 -31 18 -33 22 -21 37 27 30 177 294 171
300 -4 3 -8 1 -11 -4 -3 -10 -180 -285 -189 -294 -3 -3 -64 19 -64 23 0 1 20
60 44 131 31 92 73 182 140 305 129 234 241 458 234 465 -3 3 -25 -27 -48 -67
-66 -111 -256 -391 -322 -474 -57 -73 -58 -96 -2 -52 25 21 27 21 20 3 -4 -10
-25 -73 -48 -140 -22 -66 -45 -124 -50 -130 -5 -6 -33 4 -74 25 -55 29 -64 38
-58 55 3 11 8 37 11 57 4 28 14 44 42 65 20 15 41 33 46 41 6 7 19 14 30 16
14 2 52 53 118 157 147 233 271 439 266 444 -3 2 -44 -52 -92 -121 -85 -122
-322 -439 -371 -499 l-25 -30 -1 215 c0 118 3 239 7 268 l6 53 41 -39 c49 -47
75 -62 112 -62 30 0 107 45 145 86 24 25 24 25 -35 -5 -81 -43 -131 -42 -175
3 -18 19 -43 51 -56 71 l-22 38 19 51 c11 28 21 52 22 54 2 1 22 -23 46 -55
49 -67 110 -133 122 -133 5 0 -17 33 -47 73 -63 81 -98 148 -93 174 2 12 20
-10 50 -62 49 -83 106 -157 92 -120 -29 79 -174 518 -174 528 0 7 18 -25 40
-70 39 -80 105 -163 128 -163 6 0 0 17 -14 38 -44 64 -124 230 -124 258 0 14
11 39 25 55 38 46 41 87 11 183 -14 46 -26 88 -26 94 0 5 26 -17 58 -49 l57
-60 130 -33z m-236 42 c11 -48 21 -95 21 -105 0 -9 -19 -49 -42 -87 l-43 -71
-3 37 c-2 21 1 70 7 110 5 40 8 74 6 76 -9 10 -37 -67 -61 -170 -15 -62 -38
-135 -52 -163 -43 -87 -72 -174 -72 -221 0 -29 -19 -96 -54 -193 -30 -82 -54
-155 -53 -162 2 -50 -7 -73 -42 -112 -21 -23 -40 -49 -43 -57 -3 -11 -9 -8
-21 11 -25 37 -31 83 -15 100 8 8 28 34 45 59 27 39 35 66 57 196 20 120 35
173 69 255 47 112 66 177 102 364 32 165 34 169 102 204 32 16 61 26 64 23 3
-4 16 -46 28 -94z m932 -28 c-11 -63 -19 -90 -29 -90 -10 0 -12 7 -8 23 4 12
14 52 23 90 9 37 20 67 23 67 3 0 -1 -40 -9 -90z m457 15 c16 -15 -25 -29 -90
-29 -77 -1 -128 8 -128 24 0 5 12 11 28 13 33 6 183 0 190 -8z m-250 -120 c11
-10 -14 -26 -64 -41 -52 -15 -56 -15 -99 6 -25 12 -45 29 -45 37 0 14 13 15
102 9 56 -3 104 -8 106 -11z m-1171 -405 c-3 -36 -18 -108 -35 -160 -43 -133
-79 -453 -85 -742 -1 -60 -4 -108 -7 -108 -3 1 -23 12 -45 25 -40 24 -40 24
-76 167 -20 79 -34 146 -32 151 2 4 28 7 56 7 59 0 83 11 74 34 -7 18 -32 21
-42 6 -3 -5 -33 -10 -67 -10 -50 0 -59 3 -54 15 3 9 10 65 16 125 10 101 15
119 70 245 44 99 60 146 60 179 0 35 15 76 66 183 l66 138 20 -95 c12 -60 17
-119 15 -160z m424 -3 c-6 -6 -18 -3 -35 11 l-26 20 32 19 33 19 3 -29 c2 -16
-1 -34 -7 -40z m-836 -358 c15 -28 15 -33 0 -55 -23 -35 -33 -30 -40 20 -11
70 12 90 40 35z m74 -226 c11 -23 10 -29 -5 -40 -9 -7 -21 -10 -25 -7 -16 10
-7 74 10 74 4 0 13 -12 20 -27z m68 -219 c18 -71 33 -132 33 -136 0 -4 -14 1
-31 11 -29 18 -35 30 -59 128 -26 98 -27 109 -12 121 9 7 21 11 26 9 6 -2 25
-62 43 -133z m903 -86 c0 -11 8 -33 17 -49 16 -26 16 -31 3 -39 -33 -21 -40
-11 -40 56 0 41 4 63 10 59 6 -3 10 -15 10 -27z m-297 -270 c-2 -5 -13 -12
-23 -18 -16 -9 -18 -7 -15 10 6 33 15 41 29 27 8 -6 12 -15 9 -19z"/>
<path d="M1355 2571 c-47 -21 -95 -73 -95 -104 l0 -20 23 20 c64 59 156 71
221 27 l38 -26 -7 23 c-11 37 -55 78 -94 89 -45 12 -39 13 -86 -9z m115 -23
c19 -13 35 -29 38 -36 3 -10 -3 -9 -23 4 -36 23 -103 22 -154 -3 -45 -23 -53
-17 -18 14 54 49 105 56 157 21z"/>
<path d="M1357 2483 c-20 -14 -35 -28 -33 -31 3 -2 17 5 33 15 39 28 54 32 83
22 24 -9 24 -8 6 6 -28 21 -46 19 -89 -12z"/>
<path d="M860 681 c0 -20 53 -211 57 -207 4 4 -46 208 -53 215 -2 2 -4 -1 -4
-8z"/>
</g>
</svg>
